<svg xmlns="http://www.w3.org/2000/svg" xmlns:xlink="http://www.w3.org/1999/xlink" viewBox="0 0 165 24">
  <defs>
    <path id="a" d="M1.714 23.93H163.82V.856H1.714z"/>
  </defs>
  <g fill="none" fill-rule="evenodd">
    <path fill="#06F" d="M9.257 22.645H2.47V10.67H0v-4.1h2.47v-.226c0-1.628.1-3.156 1.268-4.522C5.073.26 7.2 0 9.223 0l5.04.422V4.49l-3.085-.26c-1.68-.13-2.16.78-1.989 2.34h4.32v4.1H9.257v11.975z"/>
    <mask id="b" fill="#fff">
      <use xlink:href="#a"/>
    </mask>
    <path fill="#06F" d="M16.044 22.645h6.638V6.39h-6.638v16.255zm0-17.814h6.638V.505h-6.638V4.83zM37.127 22.645h-5.673L24.234.818h7.826l3.328 11.532.679-2.305L38.79.818h5.407zM55.465 9.146c0-2.136-.604-3.759-2.723-3.759-1.966 0-2.759 1.75-2.684 3.76h5.407zm7.563 6.194c-1.173 5.297-5.333 7.732-9.908 7.732-2.835 0-5.594-.685-7.789-2.863-2.08-2.093-3.175-5.083-3.175-8.2 0-2.948 1.02-6.15 2.835-8.245C46.956 1.46 49.906.39 52.667.39c6.428 0 10.36 4.697 10.36 11.875v1.153H50.097c-.113 2.35.642 4.057 2.91 4.057 1.702 0 2.648-.768 2.95-2.648l7.072.513zM80.282 17.777c.703 0 1.475.032 2.045-.413.503-.35.838-.923.838-1.527 0-.731-.436-1.4-1.107-1.719-.603-.284-1.408-.284-2.045-.284h-2.781v3.943h3.05zM80.08 9.19c.67 0 1.475.03 1.977-.414.436-.381.671-.923.671-1.43 0-1.624-1.409-1.846-2.75-1.846h-2.747v3.69h2.849zM70.76.823h11.23c1.744 0 3.52.128 4.96 1.114A5.647 5.647 0 0189.4 6.55c0 2.29-1.541 4.23-3.888 4.74v.063c2.648.446 4.458 2.355 4.458 4.961 0 1.877-.704 3.978-2.348 5.09-1.775 1.21-4.255 1.242-6.334 1.242H70.76V.823zM108.406 22.645H91.142V.823h17.264V5.85H98.047v3.18h8.382v4.867h-8.382v3.532h10.359zM126.607 22.645h-16.124V.823h7.108V17.3h9.016zM156.004 22.645h-5.933l-3.184-12.024h-.067l-2.983 12.024h-6.168L131.535.823h6.636l3.185 12.597h.067L144.539.823h5.532l3.386 12.597h.066L156.71.823h5.395z" mask="url(#b)"/>
    <path fill="#06F" d="M124.795 8.637c-1.425-.212-2.4-1.48-2.175-2.83.22-1.352 1.555-2.276 2.98-2.066 1.424.211 2.4 1.476 2.178 2.83-.224 1.35-1.562 2.277-2.983 2.066m1.356-8.246c-3.373-.501-6.538 1.689-7.067 4.893-.526 3.202 1.783 6.205 5.16 6.704 3.373.5 6.537-1.69 7.063-4.891.527-3.206-1.78-6.207-5.156-6.706" mask="url(#b)"/>
  </g>
</svg>